<?xml version="1.0" encoding="UTF-8"?>
<svg version="1.1" viewBox="0 0 2048 2048" width="1280" height="1280" xmlns="http://www.w3.org/2000/svg">
<path transform="translate(842,85)" d="m0 0h14l29 6 63 14 33 7 11 4 5-2 16-8 15-5 17-3h19l14 3 12 5 11 7 10 9 15 15 9 13 11 21 6 19 3 20v18l-3 21-6 21-6 18 12 1 7 1 29 1 15-2 10-4 6-7 3-23 6-22 7-16 11-17 4-5h2l2-4 10-9 14-9 15-6 17-4 7-1h18l24 5 23 8 16 8 11 7 13 11 9 12 5 10 3 11 2 25v44l-2 15 5 9 7 10 26 39 3 7-2 1h-8l-13-6-17 1-10 2-10 1-20 9h-8l-11 12-13 12-7 8-8 7-4 2h-8l9 27 14 43 11 35 13 47 5 13 5 11v5l-7 6-21 10-29 10-3 12v8l3 10 12 25 11 24 8 24 4 19 3 32 3 37 9 76 4 13 5 8 4 2 12 3 5 5 5 13 1 5v12l-5 13-7 6-2 1 4 16 7 21 15 32 5 16v14l-3 15-6 23-6 17-7 11-8 7-18 12-8 4-5-1-2-2 1-6 12-19 1-4-6 4-13 9-4 2h-6l-6-4 1-4 8-8 2-3v-3l-7-2-4-5 6-9 9-9 5-9v-10l-2-18-4-9-9-11-5-11-4-13-3-18v-13l1-11-7-10-5-11-2-5 1-8-24-50-11-21-9-16-12-26-3-6v-2l-5-1 1 8 8 15 1 3v13l-3 15-5 5-3 1-30 1-9 3-4 8-2 9 1 9 6 12 9 12 3 13 2 31 2 36v59l-2 30-1 35-3 67v101l1 20-17 9-18 6 2 11 7 14 9 8 4 2 8 2 3 3-1 9-8 25-9 33-3 4-10 2h-26l-9-2h-5l-10 10-7 10-8 15-11 33-14 49-9 24-9 19-16 36-24 50-6 20-2 12v8l2 10 7 16 8 11 7 7h6l4-5h3l6 18 3 22v16l-2 17v15l4 11 6 7 16 8 12 3h45l11 3 7 6 2 5v16l-4 11-6 9-5 5-2 1-313 1-10-1 2-5 8-16 5-13 4-17 2-15v-10l-5-12v-15l4-18 5-10 2-2 16-2 9-4 4-4 12-28 11-33 7-27 4-19 2-16-1-21-4-23-6-29-6-41-3-36v-27l2-23 4-21 5-15 6-11 3-4 1-3-12-3-39-12-6-4-1-3-1-37v-15l3-5 6-5 3-1 17-2 2-1-2-10-8-25-6-24-10-62-7-33-4-8-7-7-8-7-7-8-4-8-3-16-3-26-1-8v-43l2-30 1-23v-13l-9-4-16-4-26-4-18-2-5 32-3 18-10 15-7 6-6-2-2-3 1-9 3-15-1-3-6 1-5 5-5 8-11 29-6 14-8 11-8 7-11 7-7 1-1-2v-6l7-20 8-13 5-13 3-14-6 3-7 9-6 10-3 3-4 1h-10l-5-3-1-6 1-15-4-5-5-4-1-2 1-9 3-6-1-6-2-2-10-1-3-2-1-43-9-6-27-13-12-8-10-10-3-8-2-22-2-27-3-9-3-3h-10l-8 2 8-17 8-11 7-6 12-4 6-1h42l-2-13-11-60-6-42-1-8v-26l4-28 7-37 8-36 8-30 11-37 6-26 2-11v-10l-16-5-46-11-9-5-2-2 1-5 9-6 15-8 2-2-1-7-14-32-5-17-2-11-1-18 2-17 5-16 8-16 13-15 12-10 14-8 16-6 11-3 6-1h10l5-5 8-13 14-22 12-19 10-15 7-11 11-13 23-23 11-9 13-10 15-9zm-113 354-6 3-10 7-12 7-2 6-5 35-4 39-2 35-1 43-6-38-3-29-1-7-2 2-11 34-9 34-7 35-3 23-1 13v27l3 27 13 85 2 5 4 2 5-3 2-10 3-59 4-54 5-47 5-41 5-23 6-29 9-31 8-22 9-19 9-14 6-7 1-3-1-13-4-8-5-5z" fill="#BF0061"/>
</svg>
